<svg xmlns="http://www.w3.org/2000/svg" xmlns:v="https://svgstorm.com"
viewBox = "0 0 12 12"
width="12"
height="12">
<g fill="None" fill-opacity="0.0" stroke="#000000" stroke-opacity="1.00" stroke-width="0.3"><path d="
M 0.00 12.00 
L 12.00 12.00
L 12.00 0.00
L 0.00 0.00
L 0.00 12.00
M 11.00 4.00 
C 11.07 4.99 11.00 6.01 11.00 7.00
C 11.00 7.50 10.90 8.98 11.00 9.00
C 12.01 9.21 10.18 10.93 10.00 11.00
C 9.31 11.28 7.75 11.00 7.00 11.00
C 6.01 11.00 4.99 11.07 4.00 11.00
C 2.40 10.88 0.78 11.28 1.00 9.00
C 1.05 8.50 1.00 8.00 1.00 8.00
C 1.00 7.50 1.00 7.00 1.00 7.00
C 1.00 6.50 1.00 5.50 1.00 5.00
C 1.00 4.50 0.96 3.50 1.00 3.00
C 1.13 1.39 1.31 1.14 3.00 1.00
C 3.50 0.96 4.50 1.00 5.00 1.00
C 5.50 1.00 6.50 1.00 7.00 1.00
C 7.50 1.00 8.00 1.00 8.00 1.00
C 8.50 1.00 9.00 1.00 9.00 1.00
C 11.19 0.79 10.88 2.35 11.00 4.00 Z"/>
</g>
<g fill="None" fill-opacity="0.0" stroke="#FFAACC" stroke-opacity="1.00" stroke-width="0.3"><path d="
M 1.00 3.00 
C 0.89 3.28 3.37 0.86 3.00 1.00
C 1.31 1.14 1.13 1.39 1.00 3.00 Z"/>
</g>
<g fill="None" fill-opacity="0.0" stroke="#BD80DA" stroke-opacity="1.00" stroke-width="0.3"><path d="
M 1.00 3.00 
C 0.96 3.50 1.00 4.50 1.00 5.00
C 1.72 4.07 4.13 1.67 5.00 1.00
C 4.50 1.00 3.50 0.96 3.00 1.00
C 3.37 0.86 0.89 3.28 1.00 3.00 Z"/>
</g>
<g fill="None" fill-opacity="0.0" stroke="#98AADA" stroke-opacity="1.00" stroke-width="0.3"><path d="
M 1.00 5.00 
C 1.00 5.50 1.00 6.50 1.00 7.00
C 3.34 5.36 5.40 3.29 7.00 1.00
C 6.50 1.00 5.50 1.00 5.00 1.00
C 4.13 1.67 1.72 4.07 1.00 5.00 Z"/>
</g>
<g fill="None" fill-opacity="0.0" stroke="#65AAD2" stroke-opacity="1.00" stroke-width="0.3"><path d="
M 1.00 7.00 
C 1.00 7.00 1.00 7.50 1.00 8.00
C 1.23 7.53 2.62 7.24 3.00 7.00
C 3.31 6.80 3.80 6.32 4.00 6.00
C 5.12 4.18 6.81 2.70 8.00 1.00
C 8.00 1.00 7.50 1.00 7.00 1.00
C 5.40 3.29 3.34 5.36 1.00 7.00 Z"/>
</g>
<g fill="None" fill-opacity="0.0" stroke="#74D5CC" stroke-opacity="1.00" stroke-width="0.3"><path d="
M 4.00 6.00 
C 6.40 4.68 8.12 3.80 9.00 1.00
C 9.00 1.00 8.50 1.00 8.00 1.00
C 6.81 2.70 5.12 4.18 4.00 6.00 Z"/>
</g>
<g fill="None" fill-opacity="0.0" stroke="#92FF92" stroke-opacity="1.00" stroke-width="0.3"><path d="
M 4.00 6.00 
C 3.80 6.32 3.31 6.80 3.00 7.00
C 2.66 7.35 1.88 9.44 1.00 9.00
C 0.78 11.28 2.40 10.88 4.00 11.00
C 4.09 10.99 11.00 4.00 11.00 4.00
C 10.88 2.35 11.19 0.79 9.00 1.00
C 8.12 3.80 6.40 4.68 4.00 6.00 Z"/>
</g>
<g fill="None" fill-opacity="0.0" stroke="#DAFF58" stroke-opacity="1.00" stroke-width="0.3"><path d="
M 4.00 11.00 
C 4.99 11.07 6.01 11.00 7.00 11.00
C 7.16 10.93 10.96 7.08 11.00 7.00
C 11.00 6.01 11.07 4.99 11.00 4.00
C 11.00 4.00 4.09 10.99 4.00 11.00 Z"/>
</g>
<g fill="None" fill-opacity="0.0" stroke="#66D5CC" stroke-opacity="1.00" stroke-width="0.3"><path d="
M 1.00 8.00 
C 1.00 8.00 1.05 8.50 1.00 9.00
C 1.88 9.44 2.66 7.35 3.00 7.00
C 2.62 7.24 1.23 7.53 1.00 8.00 Z"/>
</g>
<g fill="None" fill-opacity="0.0" stroke="#FFBA4A" stroke-opacity="1.00" stroke-width="0.3"><path d="
M 7.00 11.00 
C 7.75 11.00 9.31 11.28 10.00 11.00
C 9.10 11.59 11.20 8.26 11.00 9.00
C 10.90 8.98 11.00 7.50 11.00 7.00
C 10.96 7.08 7.16 10.93 7.00 11.00 Z"/>
</g>
<g fill="None" fill-opacity="0.0" stroke="#FF6B66" stroke-opacity="1.00" stroke-width="0.3"><path d="
M 10.00 11.00 
C 10.18 10.93 12.01 9.21 11.00 9.00
C 11.20 8.26 9.10 11.59 10.00 11.00 Z"/>
</g>
<g fill="#000000" fill-opacity="1.00" stroke="None">
<path d="
M 0.00 12.00 
L 12.00 12.00
L 12.00 0.00
L 0.00 0.00
L 0.00 12.00
M 11.00 4.00 
C 11.07 4.99 11.00 6.01 11.00 7.00
C 11.00 7.50 10.90 8.98 11.00 9.00
C 12.01 9.21 10.18 10.93 10.00 11.00
C 9.31 11.28 7.75 11.00 7.00 11.00
C 6.01 11.00 4.99 11.07 4.00 11.00
C 2.40 10.88 0.78 11.28 1.00 9.00
C 1.05 8.50 1.00 8.00 1.00 8.00
C 1.00 7.50 1.00 7.00 1.00 7.00
C 1.00 6.50 1.00 5.50 1.00 5.00
C 1.00 4.50 0.96 3.50 1.00 3.00
C 1.13 1.39 1.31 1.14 3.00 1.00
C 3.50 0.96 4.50 1.00 5.00 1.00
C 5.50 1.00 6.50 1.00 7.00 1.00
C 7.50 1.00 8.00 1.00 8.00 1.00
C 8.50 1.00 9.00 1.00 9.00 1.00
C 11.19 0.79 10.88 2.35 11.00 4.00 Z"/>
</g>
<g fill="#FFAACC" fill-opacity="1.00" stroke="None">
<path d="
M 1.00 3.00 
C 0.89 3.28 3.37 0.86 3.00 1.00
C 1.31 1.14 1.13 1.39 1.00 3.00 Z"/>
</g>
<g fill="#BD80DA" fill-opacity="1.00" stroke="None">
<path d="
M 1.00 3.00 
C 0.96 3.50 1.00 4.50 1.00 5.00
C 1.72 4.07 4.13 1.67 5.00 1.00
C 4.50 1.00 3.50 0.96 3.00 1.00
C 3.37 0.86 0.89 3.28 1.00 3.00 Z"/>
</g>
<g fill="#98AADA" fill-opacity="1.00" stroke="None">
<path d="
M 1.00 5.00 
C 1.00 5.50 1.00 6.50 1.00 7.00
C 3.34 5.36 5.40 3.29 7.00 1.00
C 6.50 1.00 5.50 1.00 5.00 1.00
C 4.13 1.67 1.72 4.07 1.00 5.00 Z"/>
</g>
<g fill="#65AAD2" fill-opacity="1.00" stroke="None">
<path d="
M 1.00 7.00 
C 1.00 7.00 1.00 7.50 1.00 8.00
C 1.23 7.53 2.62 7.24 3.00 7.00
C 3.31 6.80 3.80 6.32 4.00 6.00
C 5.12 4.18 6.81 2.70 8.00 1.00
C 8.00 1.00 7.50 1.00 7.00 1.00
C 5.40 3.29 3.34 5.36 1.00 7.00 Z"/>
</g>
<g fill="#74D5CC" fill-opacity="1.00" stroke="None">
<path d="
M 4.00 6.00 
C 6.40 4.68 8.12 3.80 9.00 1.00
C 9.00 1.00 8.50 1.00 8.00 1.00
C 6.81 2.70 5.12 4.18 4.00 6.00 Z"/>
</g>
<g fill="#92FF92" fill-opacity="1.00" stroke="None">
<path d="
M 4.00 6.00 
C 3.80 6.32 3.31 6.80 3.00 7.00
C 2.66 7.35 1.88 9.44 1.00 9.00
C 0.78 11.28 2.40 10.88 4.00 11.00
C 4.09 10.99 11.00 4.00 11.00 4.00
C 10.88 2.35 11.19 0.79 9.00 1.00
C 8.12 3.80 6.40 4.68 4.00 6.00 Z"/>
</g>
<g fill="#DAFF58" fill-opacity="1.00" stroke="None">
<path d="
M 4.00 11.00 
C 4.99 11.07 6.01 11.00 7.00 11.00
C 7.16 10.93 10.96 7.08 11.00 7.00
C 11.00 6.01 11.07 4.99 11.00 4.00
C 11.00 4.00 4.09 10.99 4.00 11.00 Z"/>
</g>
<g fill="#66D5CC" fill-opacity="1.00" stroke="None">
<path d="
M 1.00 8.00 
C 1.00 8.00 1.05 8.50 1.00 9.00
C 1.88 9.44 2.66 7.35 3.00 7.00
C 2.62 7.24 1.23 7.53 1.00 8.00 Z"/>
</g>
<g fill="#FFBA4A" fill-opacity="1.00" stroke="None">
<path d="
M 7.00 11.00 
C 7.75 11.00 9.31 11.28 10.00 11.00
C 9.10 11.59 11.20 8.26 11.00 9.00
C 10.90 8.98 11.00 7.50 11.00 7.00
C 10.96 7.08 7.16 10.93 7.00 11.00 Z"/>
</g>
<g fill="#FF6B66" fill-opacity="1.00" stroke="None">
<path d="
M 10.00 11.00 
C 10.18 10.93 12.01 9.21 11.00 9.00
C 11.20 8.26 9.10 11.59 10.00 11.00 Z"/>
</g>
</svg>