<svg version="1.1" xmlns="http://www.w3.org/2000/svg" viewBox="0 0 98 95" width="98" height="95">
  <!-- svg-source:excalidraw -->
  
  <defs>
    <style class="style-fonts">
      
    </style>
    
  </defs>
  <g stroke-linecap="round" transform="translate(10 10) rotate(0 39 37.5)"><path d="M78 37.5 C78 39.46, 77.84 41.43, 77.52 43.37 C77.2 45.3, 76.72 47.23, 76.09 49.09 C75.46 50.95, 74.67 52.78, 73.75 54.52 C72.83 56.27, 71.75 57.96, 70.55 59.54 C69.36 61.12, 68.02 62.63, 66.58 64.02 C65.14 65.4, 63.57 66.69, 61.92 67.84 C60.28 68.99, 58.52 70.02, 56.71 70.91 C54.89 71.8, 52.99 72.56, 51.05 73.16 C49.12 73.77, 47.11 74.23, 45.1 74.54 C43.09 74.84, 41.03 75, 39 75 C36.97 75, 34.91 74.84, 32.9 74.54 C30.89 74.23, 28.88 73.77, 26.95 73.16 C25.01 72.56, 23.11 71.8, 21.29 70.91 C19.48 70.02, 17.72 68.99, 16.08 67.84 C14.43 66.69, 12.86 65.4, 11.42 64.02 C9.98 62.63, 8.64 61.12, 7.45 59.54 C6.25 57.96, 5.17 56.27, 4.25 54.52 C3.33 52.78, 2.54 50.95, 1.91 49.09 C1.28 47.23, 0.8 45.3, 0.48 43.37 C0.16 41.43, 0 39.46, 0 37.5 C0 35.54, 0.16 33.57, 0.48 31.63 C0.8 29.7, 1.28 27.77, 1.91 25.91 C2.54 24.05, 3.33 22.22, 4.25 20.48 C5.17 18.73, 6.25 17.04, 7.45 15.46 C8.64 13.88, 9.98 12.37, 11.42 10.98 C12.86 9.6, 14.43 8.31, 16.08 7.16 C17.72 6.01, 19.48 4.98, 21.29 4.09 C23.11 3.2, 25.01 2.44, 26.95 1.84 C28.88 1.23, 30.89 0.77, 32.9 0.46 C34.91 0.16, 36.97 0, 39 0 C41.03 0, 43.09 0.16, 45.1 0.46 C47.11 0.77, 49.12 1.23, 51.05 1.84 C52.99 2.44, 54.89 3.2, 56.71 4.09 C58.52 4.98, 60.28 6.01, 61.92 7.16 C63.57 8.31, 65.14 9.6, 66.58 10.98 C68.02 12.37, 69.36 13.88, 70.55 15.46 C71.75 17.04, 72.83 18.73, 73.75 20.48 C74.67 22.22, 75.46 24.05, 76.09 25.91 C76.72 27.77, 77.2 29.7, 77.52 31.63 C77.84 33.57, 77.92 36.52, 78 37.5 C78.08 38.48, 78.08 36.52, 78 37.5" stroke="none" stroke-width="0" fill="#e03131"></path><path d="M78 37.5 C78 39.46, 77.84 41.43, 77.52 43.37 C77.2 45.3, 76.72 47.23, 76.09 49.09 C75.46 50.95, 74.67 52.78, 73.75 54.52 C72.83 56.27, 71.75 57.96, 70.55 59.54 C69.36 61.12, 68.02 62.63, 66.58 64.02 C65.14 65.4, 63.57 66.69, 61.92 67.84 C60.28 68.99, 58.52 70.02, 56.71 70.91 C54.89 71.8, 52.99 72.56, 51.05 73.16 C49.12 73.77, 47.11 74.23, 45.1 74.54 C43.09 74.84, 41.03 75, 39 75 C36.97 75, 34.91 74.84, 32.9 74.54 C30.89 74.23, 28.88 73.77, 26.95 73.16 C25.01 72.56, 23.11 71.8, 21.29 70.91 C19.48 70.02, 17.72 68.99, 16.08 67.84 C14.43 66.69, 12.86 65.4, 11.42 64.02 C9.98 62.63, 8.64 61.12, 7.45 59.54 C6.25 57.96, 5.17 56.27, 4.25 54.52 C3.33 52.78, 2.54 50.95, 1.91 49.09 C1.28 47.23, 0.8 45.3, 0.48 43.37 C0.16 41.43, 0 39.46, 0 37.5 C0 35.54, 0.16 33.57, 0.48 31.63 C0.8 29.7, 1.28 27.77, 1.91 25.91 C2.54 24.05, 3.33 22.22, 4.25 20.48 C5.17 18.73, 6.25 17.04, 7.45 15.46 C8.64 13.88, 9.98 12.37, 11.42 10.98 C12.86 9.6, 14.43 8.31, 16.08 7.16 C17.72 6.01, 19.48 4.98, 21.29 4.09 C23.11 3.2, 25.01 2.44, 26.95 1.84 C28.88 1.23, 30.89 0.77, 32.9 0.46 C34.91 0.16, 36.97 0, 39 0 C41.03 0, 43.09 0.16, 45.1 0.46 C47.11 0.77, 49.12 1.23, 51.05 1.84 C52.99 2.44, 54.89 3.2, 56.71 4.09 C58.52 4.98, 60.28 6.01, 61.92 7.16 C63.57 8.31, 65.14 9.6, 66.58 10.98 C68.02 12.37, 69.36 13.88, 70.55 15.46 C71.75 17.04, 72.83 18.73, 73.75 20.48 C74.67 22.22, 75.46 24.05, 76.09 25.91 C76.72 27.77, 77.2 29.7, 77.52 31.63 C77.84 33.57, 77.92 36.52, 78 37.5 C78.08 38.48, 78.08 36.52, 78 37.5" stroke="#1e1e1e" stroke-width="4" fill="none"></path></g></svg>