<svg xmlns="http://www.w3.org/2000/svg" xmlns:v="https://svgstorm.com"
viewBox = "0 0 12 12"
width="12"
height="12">
<g fill="None" fill-opacity="0.0" stroke="#000000" stroke-opacity="0.00" stroke-width="0.3"><path d="
M 0.00 4.00 
C 0.50 4.00 1.00 4.00 1.00 4.00
C 1.26 3.88 1.88 3.26 2.00 3.00
C 1.75 2.75 2.00 2.00 2.00 2.00
C 2.03 1.65 2.65 1.03 3.00 1.00
C 3.50 0.95 4.00 1.00 4.00 1.00
C 4.25 0.75 4.00 0.00 4.00 0.00
L 0.00 0.00
L 0.00 4.00 Z"/>
</g>
<g fill="None" fill-opacity="0.0" stroke="#90817F" stroke-opacity="1.00" stroke-width="0.3"><path d="
M 4.00 1.00 
C 4.85 1.00 7.29 1.43 8.00 1.00
C 7.75 0.75 8.00 0.00 8.00 0.00
L 4.00 0.00
C 4.00 0.00 4.25 0.75 4.00 1.00 Z"/>
</g>
<g fill="None" fill-opacity="0.0" stroke="#000000" stroke-opacity="0.00" stroke-width="0.3"><path d="
M 8.00 1.00 
C 8.25 1.25 9.00 1.00 9.00 1.00
C 10.11 1.17 10.52 2.25 11.00 3.00
C 11.20 3.31 11.67 3.84 12.00 4.00
L 12.00 0.00
L 8.00 0.00
C 8.00 0.00 7.75 0.75 8.00 1.00 Z"/>
</g>
<g fill="None" fill-opacity="0.0" stroke="#57865A" stroke-opacity="1.00" stroke-width="0.3"><path d="
M 2.00 2.00 
C 2.12 1.74 2.74 1.12 3.00 1.00
C 2.65 1.03 2.03 1.65 2.00 2.00 Z"/>
</g>
<g fill="None" fill-opacity="0.0" stroke="#0E2603" stroke-opacity="1.00" stroke-width="0.3"><path d="
M 2.00 2.00 
C 2.00 2.00 1.75 2.75 2.00 3.00
C 2.41 2.81 3.00 3.00 3.00 3.00
C 3.50 3.00 4.00 3.00 4.00 3.00
C 4.26 2.88 4.98 1.97 5.00 2.00
C 6.79 1.45 8.32 2.49 9.00 4.00
C 9.41 3.81 10.00 4.00 10.00 4.00
C 9.81 3.59 10.00 3.00 10.00 3.00
C 9.88 2.74 9.25 2.25 9.00 2.00
C 8.75 1.75 8.27 1.13 8.00 1.00
C 7.29 1.43 4.85 1.00 4.00 1.00
C 4.00 1.00 3.50 0.95 3.00 1.00
C 2.74 1.12 2.12 1.74 2.00 2.00 Z"/>
</g>
<g fill="None" fill-opacity="0.0" stroke="#829166" stroke-opacity="1.00" stroke-width="0.3"><path d="
M 9.00 2.00 
C 8.81 1.59 9.00 1.00 9.00 1.00
C 9.00 1.00 8.25 1.25 8.00 1.00
C 8.27 1.13 8.75 1.75 9.00 2.00 Z"/>
</g>
<g fill="None" fill-opacity="0.0" stroke="#937B77" stroke-opacity="1.00" stroke-width="0.3"><path d="
M 9.00 2.00 
C 9.12 2.26 9.74 2.88 10.00 3.00
C 10.25 2.75 11.00 3.00 11.00 3.00
C 10.52 2.25 10.11 1.17 9.00 1.00
C 9.00 1.00 8.81 1.59 9.00 2.00 Z"/>
</g>
<g fill="None" fill-opacity="0.0" stroke="#A7B654" stroke-opacity="1.00" stroke-width="0.3"><path d="
M 4.00 3.00 
C 4.40 2.80 5.00 3.00 5.00 3.00
C 4.94 2.51 5.00 2.00 5.00 2.00
C 4.98 1.97 4.26 2.88 4.00 3.00 Z"/>
</g>
<g fill="None" fill-opacity="0.0" stroke="#67F444" stroke-opacity="1.00" stroke-width="0.3"><path d="
M 5.00 3.00 
C 5.16 4.40 4.47 5.17 3.00 5.00
C 2.51 4.94 2.00 5.00 2.00 5.00
C 2.12 7.32 2.24 7.69 4.00 9.00
C 3.91 9.59 7.75 5.32 8.00 5.00
C 8.21 4.74 8.74 4.12 9.00 4.00
C 8.32 2.49 6.79 1.45 5.00 2.00
C 5.00 2.00 4.94 2.51 5.00 3.00 Z"/>
</g>
<g fill="None" fill-opacity="0.0" stroke="#100000" stroke-opacity="1.00" stroke-width="0.3"><path d="
M 10.00 3.00 
C 9.74 2.88 9.12 2.26 9.00 2.00
C 9.25 2.25 9.88 2.74 10.00 3.00 Z"/>
</g>
<g fill="None" fill-opacity="0.0" stroke="#CA8470" stroke-opacity="1.00" stroke-width="0.3"><path d="
M 1.00 4.00 
C 1.12 3.74 1.74 3.12 2.00 3.00
C 1.88 3.26 1.26 3.88 1.00 4.00 Z"/>
</g>
<g fill="None" fill-opacity="0.0" stroke="#330000" stroke-opacity="1.00" stroke-width="0.3"><path d="
M 1.00 4.00 
C 1.25 4.25 1.00 5.00 1.00 5.00
C 1.25 5.25 2.00 5.00 2.00 5.00
C 2.42 4.79 2.72 3.14 3.00 3.00
C 3.00 3.00 2.41 2.81 2.00 3.00
C 1.74 3.12 1.12 3.74 1.00 4.00 Z"/>
</g>
<g fill="None" fill-opacity="0.0" stroke="#D6A539" stroke-opacity="1.00" stroke-width="0.3"><path d="
M 2.00 5.00 
C 2.00 5.00 2.51 4.94 3.00 5.00
C 3.42 4.79 3.72 3.14 4.00 3.00
C 4.00 3.00 3.50 3.00 3.00 3.00
C 2.72 3.14 2.42 4.79 2.00 5.00 Z"/>
</g>
<g fill="None" fill-opacity="0.0" stroke="#F8EB2F" stroke-opacity="1.00" stroke-width="0.3"><path d="
M 3.00 5.00 
C 4.47 5.17 5.16 4.40 5.00 3.00
C 5.00 3.00 4.40 2.80 4.00 3.00
C 3.72 3.14 3.42 4.79 3.00 5.00 Z"/>
</g>
<g fill="None" fill-opacity="0.0" stroke="#7C8C9A" stroke-opacity="1.00" stroke-width="0.3"><path d="
M 10.00 4.00 
C 10.12 4.26 10.91 4.65 11.00 5.00
C 11.41 5.19 12.00 5.00 12.00 5.00
L 12.00 4.00
C 11.67 3.84 11.20 3.31 11.00 3.00
C 11.00 3.00 10.25 2.75 10.00 3.00
C 10.00 3.00 9.81 3.59 10.00 4.00 Z"/>
</g>
<g fill="None" fill-opacity="0.0" stroke="#5F9571" stroke-opacity="1.00" stroke-width="0.3"><path d="
M 0.00 5.00 
C 0.50 5.00 1.00 5.00 1.00 5.00
C 1.00 5.00 1.25 4.25 1.00 4.00
C 1.00 4.00 0.50 4.00 0.00 4.00
L 0.00 5.00 Z"/>
</g>
<g fill="None" fill-opacity="0.0" stroke="#3CDCD9" stroke-opacity="1.00" stroke-width="0.3"><path d="
M 8.00 5.00 
C 7.31 6.46 6.63 8.41 6.00 10.00
C 6.50 9.97 7.00 10.00 7.00 10.00
C 7.03 9.65 7.68 9.19 8.00 9.00
C 8.42 8.49 9.89 6.36 10.00 6.00
C 10.03 5.50 10.23 4.16 10.00 4.00
C 10.00 4.00 9.41 3.81 9.00 4.00
C 8.74 4.12 8.21 4.74 8.00 5.00 Z"/>
</g>
<g fill="None" fill-opacity="0.0" stroke="#001F45" stroke-opacity="1.00" stroke-width="0.3"><path d="
M 10.00 6.00 
C 9.90 7.69 9.38 8.20 8.00 9.00
C 7.68 9.19 7.03 9.65 7.00 10.00
C 6.95 10.50 7.00 11.00 7.00 11.00
C 7.50 11.00 8.00 11.00 8.00 11.00
C 8.95 10.39 10.38 8.96 11.00 8.00
C 10.75 7.75 11.00 7.00 11.00 7.00
C 11.00 6.50 11.12 5.47 11.00 5.00
C 10.91 4.65 10.12 4.26 10.00 4.00
C 10.23 4.16 10.03 5.50 10.00 6.00 Z"/>
</g>
<g fill="None" fill-opacity="0.0" stroke="#827A6C" stroke-opacity="1.00" stroke-width="0.3"><path d="
M 0.00 8.00 
C 0.50 8.00 1.00 8.00 1.00 8.00
C 1.10 7.91 1.10 5.09 1.00 5.00
C 1.00 5.00 0.50 5.00 0.00 5.00
L 0.00 8.00 Z"/>
</g>
<g fill="None" fill-opacity="0.0" stroke="#021F03" stroke-opacity="1.00" stroke-width="0.3"><path d="
M 1.00 8.00 
C 1.15 8.52 3.50 10.86 4.00 11.00
C 4.24 10.74 6.61 11.00 7.00 11.00
C 7.00 11.00 6.95 10.50 7.00 10.00
C 7.00 10.00 6.50 9.97 6.00 10.00
C 4.45 10.10 4.93 9.70 4.00 9.00
C 2.24 7.69 2.12 7.32 2.00 5.00
C 2.00 5.00 1.25 5.25 1.00 5.00
C 1.10 5.09 1.10 7.91 1.00 8.00 Z"/>
</g>
<g fill="None" fill-opacity="0.0" stroke="#43E7AE" stroke-opacity="1.00" stroke-width="0.3"><path d="
M 4.00 9.00 
C 4.93 9.70 4.45 10.10 6.00 10.00
C 6.63 8.41 7.31 6.46 8.00 5.00
C 7.75 5.32 3.91 9.59 4.00 9.00 Z"/>
</g>
<g fill="None" fill-opacity="0.0" stroke="#629262" stroke-opacity="1.00" stroke-width="0.3"><path d="
M 11.00 7.00 
C 11.25 6.75 12.00 7.00 12.00 7.00
L 12.00 5.00
C 12.00 5.00 11.41 5.19 11.00 5.00
C 11.12 5.47 11.00 6.50 11.00 7.00 Z"/>
</g>
<g fill="None" fill-opacity="0.0" stroke="#0C91AD" stroke-opacity="1.00" stroke-width="0.3"><path d="
M 8.00 9.00 
C 9.38 8.20 9.90 7.69 10.00 6.00
C 9.89 6.36 8.42 8.49 8.00 9.00 Z"/>
</g>
<g fill="None" fill-opacity="0.0" stroke="#9B7574" stroke-opacity="1.00" stroke-width="0.3"><path d="
M 11.00 8.00 
C 11.25 8.25 12.00 8.00 12.00 8.00
L 12.00 7.00
C 12.00 7.00 11.25 6.75 11.00 7.00
C 11.00 7.00 10.75 7.75 11.00 8.00 Z"/>
</g>
<g fill="None" fill-opacity="0.0" stroke="#000000" stroke-opacity="0.00" stroke-width="0.3"><path d="
M 0.00 12.00 
L 4.00 12.00
C 4.00 11.50 4.00 11.00 4.00 11.00
C 1.90 10.72 1.28 10.12 1.00 8.00
C 1.00 8.00 0.50 8.00 0.00 8.00
L 0.00 12.00 Z"/>
</g>
<g fill="None" fill-opacity="0.0" stroke="#64896A" stroke-opacity="1.00" stroke-width="0.3"><path d="
M 4.00 11.00 
C 3.50 10.86 1.15 8.52 1.00 8.00
C 1.28 10.12 1.90 10.72 4.00 11.00 Z"/>
</g>
<g fill="None" fill-opacity="0.0" stroke="#6983B2" stroke-opacity="1.00" stroke-width="0.3"><path d="
M 8.00 11.00 
C 10.10 10.72 10.72 10.12 11.00 8.00
C 10.38 8.96 8.95 10.39 8.00 11.00 Z"/>
</g>
<g fill="None" fill-opacity="0.0" stroke="#000000" stroke-opacity="0.00" stroke-width="0.3"><path d="
M 8.00 11.00 
C 8.25 11.25 8.00 12.00 8.00 12.00
L 12.00 12.00
L 12.00 8.00
C 12.00 8.00 11.25 8.25 11.00 8.00
C 10.72 10.12 10.10 10.72 8.00 11.00 Z"/>
</g>
<g fill="None" fill-opacity="0.0" stroke="#936F84" stroke-opacity="1.00" stroke-width="0.3"><path d="
M 4.00 12.00 
L 8.00 12.00
C 8.00 12.00 8.25 11.25 8.00 11.00
C 8.00 11.00 7.50 11.00 7.00 11.00
C 6.61 11.00 4.24 10.74 4.00 11.00
C 4.00 11.00 4.00 11.50 4.00 12.00 Z"/>
</g>
<g fill="#000000" fill-opacity="0.00" stroke="None">
<path d="
M 0.00 4.00 
C 0.50 4.00 1.00 4.00 1.00 4.00
C 1.26 3.88 1.88 3.26 2.00 3.00
C 1.75 2.75 2.00 2.00 2.00 2.00
C 2.03 1.65 2.65 1.03 3.00 1.00
C 3.50 0.95 4.00 1.00 4.00 1.00
C 4.25 0.75 4.00 0.00 4.00 0.00
L 0.00 0.00
L 0.00 4.00 Z"/>
</g>
<g fill="#90817F" fill-opacity="1.00" stroke="None">
<path d="
M 4.00 1.00 
C 4.85 1.00 7.29 1.43 8.00 1.00
C 7.75 0.75 8.00 0.00 8.00 0.00
L 4.00 0.00
C 4.00 0.00 4.25 0.75 4.00 1.00 Z"/>
</g>
<g fill="#000000" fill-opacity="0.00" stroke="None">
<path d="
M 8.00 1.00 
C 8.25 1.25 9.00 1.00 9.00 1.00
C 10.11 1.17 10.52 2.25 11.00 3.00
C 11.20 3.31 11.67 3.84 12.00 4.00
L 12.00 0.00
L 8.00 0.00
C 8.00 0.00 7.75 0.75 8.00 1.00 Z"/>
</g>
<g fill="#57865A" fill-opacity="1.00" stroke="None">
<path d="
M 2.00 2.00 
C 2.12 1.74 2.74 1.12 3.00 1.00
C 2.65 1.03 2.03 1.65 2.00 2.00 Z"/>
</g>
<g fill="#0E2603" fill-opacity="1.00" stroke="None">
<path d="
M 2.00 2.00 
C 2.00 2.00 1.75 2.75 2.00 3.00
C 2.41 2.81 3.00 3.00 3.00 3.00
C 3.50 3.00 4.00 3.00 4.00 3.00
C 4.26 2.88 4.98 1.97 5.00 2.00
C 6.79 1.45 8.32 2.49 9.00 4.00
C 9.41 3.81 10.00 4.00 10.00 4.00
C 9.81 3.59 10.00 3.00 10.00 3.00
C 9.88 2.74 9.25 2.25 9.00 2.00
C 8.75 1.75 8.27 1.13 8.00 1.00
C 7.29 1.43 4.85 1.00 4.00 1.00
C 4.00 1.00 3.50 0.95 3.00 1.00
C 2.74 1.12 2.12 1.74 2.00 2.00 Z"/>
</g>
<g fill="#829166" fill-opacity="1.00" stroke="None">
<path d="
M 9.00 2.00 
C 8.81 1.59 9.00 1.00 9.00 1.00
C 9.00 1.00 8.25 1.25 8.00 1.00
C 8.27 1.13 8.75 1.75 9.00 2.00 Z"/>
</g>
<g fill="#937B77" fill-opacity="1.00" stroke="None">
<path d="
M 9.00 2.00 
C 9.12 2.26 9.74 2.88 10.00 3.00
C 10.25 2.75 11.00 3.00 11.00 3.00
C 10.52 2.25 10.11 1.17 9.00 1.00
C 9.00 1.00 8.81 1.59 9.00 2.00 Z"/>
</g>
<g fill="#A7B654" fill-opacity="1.00" stroke="None">
<path d="
M 4.00 3.00 
C 4.40 2.80 5.00 3.00 5.00 3.00
C 4.94 2.51 5.00 2.00 5.00 2.00
C 4.98 1.97 4.26 2.88 4.00 3.00 Z"/>
</g>
<g fill="#67F444" fill-opacity="1.00" stroke="None">
<path d="
M 5.00 3.00 
C 5.16 4.40 4.47 5.17 3.00 5.00
C 2.51 4.94 2.00 5.00 2.00 5.00
C 2.12 7.32 2.24 7.69 4.00 9.00
C 3.91 9.59 7.75 5.32 8.00 5.00
C 8.21 4.74 8.74 4.12 9.00 4.00
C 8.32 2.49 6.79 1.45 5.00 2.00
C 5.00 2.00 4.94 2.51 5.00 3.00 Z"/>
</g>
<g fill="#100000" fill-opacity="1.00" stroke="None">
<path d="
M 10.00 3.00 
C 9.74 2.88 9.12 2.26 9.00 2.00
C 9.25 2.25 9.88 2.74 10.00 3.00 Z"/>
</g>
<g fill="#CA8470" fill-opacity="1.00" stroke="None">
<path d="
M 1.00 4.00 
C 1.12 3.74 1.74 3.12 2.00 3.00
C 1.88 3.26 1.26 3.88 1.00 4.00 Z"/>
</g>
<g fill="#330000" fill-opacity="1.00" stroke="None">
<path d="
M 1.00 4.00 
C 1.25 4.25 1.00 5.00 1.00 5.00
C 1.25 5.25 2.00 5.00 2.00 5.00
C 2.42 4.79 2.72 3.14 3.00 3.00
C 3.00 3.00 2.41 2.81 2.00 3.00
C 1.74 3.12 1.12 3.74 1.00 4.00 Z"/>
</g>
<g fill="#D6A539" fill-opacity="1.00" stroke="None">
<path d="
M 2.00 5.00 
C 2.00 5.00 2.51 4.94 3.00 5.00
C 3.42 4.79 3.72 3.14 4.00 3.00
C 4.00 3.00 3.50 3.00 3.00 3.00
C 2.72 3.14 2.42 4.79 2.00 5.00 Z"/>
</g>
<g fill="#F8EB2F" fill-opacity="1.00" stroke="None">
<path d="
M 3.00 5.00 
C 4.47 5.17 5.16 4.40 5.00 3.00
C 5.00 3.00 4.40 2.80 4.00 3.00
C 3.72 3.14 3.42 4.79 3.00 5.00 Z"/>
</g>
<g fill="#7C8C9A" fill-opacity="1.00" stroke="None">
<path d="
M 10.00 4.00 
C 10.12 4.26 10.91 4.65 11.00 5.00
C 11.41 5.19 12.00 5.00 12.00 5.00
L 12.00 4.00
C 11.67 3.84 11.20 3.31 11.00 3.00
C 11.00 3.00 10.25 2.75 10.00 3.00
C 10.00 3.00 9.81 3.59 10.00 4.00 Z"/>
</g>
<g fill="#5F9571" fill-opacity="1.00" stroke="None">
<path d="
M 0.00 5.00 
C 0.50 5.00 1.00 5.00 1.00 5.00
C 1.00 5.00 1.25 4.25 1.00 4.00
C 1.00 4.00 0.50 4.00 0.00 4.00
L 0.00 5.00 Z"/>
</g>
<g fill="#3CDCD9" fill-opacity="1.00" stroke="None">
<path d="
M 8.00 5.00 
C 7.31 6.46 6.63 8.41 6.00 10.00
C 6.50 9.97 7.00 10.00 7.00 10.00
C 7.03 9.65 7.68 9.19 8.00 9.00
C 8.42 8.49 9.89 6.36 10.00 6.00
C 10.03 5.50 10.23 4.16 10.00 4.00
C 10.00 4.00 9.41 3.81 9.00 4.00
C 8.74 4.12 8.21 4.74 8.00 5.00 Z"/>
</g>
<g fill="#001F45" fill-opacity="1.00" stroke="None">
<path d="
M 10.00 6.00 
C 9.90 7.69 9.38 8.20 8.00 9.00
C 7.68 9.19 7.03 9.65 7.00 10.00
C 6.95 10.50 7.00 11.00 7.00 11.00
C 7.50 11.00 8.00 11.00 8.00 11.00
C 8.95 10.39 10.38 8.96 11.00 8.00
C 10.75 7.75 11.00 7.00 11.00 7.00
C 11.00 6.50 11.12 5.47 11.00 5.00
C 10.91 4.65 10.12 4.26 10.00 4.00
C 10.23 4.16 10.03 5.50 10.00 6.00 Z"/>
</g>
<g fill="#827A6C" fill-opacity="1.00" stroke="None">
<path d="
M 0.00 8.00 
C 0.50 8.00 1.00 8.00 1.00 8.00
C 1.10 7.91 1.10 5.09 1.00 5.00
C 1.00 5.00 0.50 5.00 0.00 5.00
L 0.00 8.00 Z"/>
</g>
<g fill="#021F03" fill-opacity="1.00" stroke="None">
<path d="
M 1.00 8.00 
C 1.15 8.52 3.50 10.86 4.00 11.00
C 4.24 10.74 6.61 11.00 7.00 11.00
C 7.00 11.00 6.95 10.50 7.00 10.00
C 7.00 10.00 6.50 9.97 6.00 10.00
C 4.45 10.10 4.93 9.70 4.00 9.00
C 2.24 7.69 2.12 7.32 2.00 5.00
C 2.00 5.00 1.25 5.25 1.00 5.00
C 1.10 5.09 1.10 7.91 1.00 8.00 Z"/>
</g>
<g fill="#43E7AE" fill-opacity="1.00" stroke="None">
<path d="
M 4.00 9.00 
C 4.93 9.70 4.45 10.10 6.00 10.00
C 6.63 8.41 7.31 6.46 8.00 5.00
C 7.75 5.32 3.91 9.59 4.00 9.00 Z"/>
</g>
<g fill="#629262" fill-opacity="1.00" stroke="None">
<path d="
M 11.00 7.00 
C 11.25 6.75 12.00 7.00 12.00 7.00
L 12.00 5.00
C 12.00 5.00 11.41 5.19 11.00 5.00
C 11.12 5.47 11.00 6.50 11.00 7.00 Z"/>
</g>
<g fill="#0C91AD" fill-opacity="1.00" stroke="None">
<path d="
M 8.00 9.00 
C 9.38 8.20 9.90 7.69 10.00 6.00
C 9.89 6.36 8.42 8.49 8.00 9.00 Z"/>
</g>
<g fill="#9B7574" fill-opacity="1.00" stroke="None">
<path d="
M 11.00 8.00 
C 11.25 8.25 12.00 8.00 12.00 8.00
L 12.00 7.00
C 12.00 7.00 11.25 6.75 11.00 7.00
C 11.00 7.00 10.75 7.75 11.00 8.00 Z"/>
</g>
<g fill="#000000" fill-opacity="0.00" stroke="None">
<path d="
M 0.00 12.00 
L 4.00 12.00
C 4.00 11.50 4.00 11.00 4.00 11.00
C 1.90 10.72 1.28 10.12 1.00 8.00
C 1.00 8.00 0.50 8.00 0.00 8.00
L 0.00 12.00 Z"/>
</g>
<g fill="#64896A" fill-opacity="1.00" stroke="None">
<path d="
M 4.00 11.00 
C 3.50 10.86 1.15 8.52 1.00 8.00
C 1.28 10.12 1.90 10.72 4.00 11.00 Z"/>
</g>
<g fill="#6983B2" fill-opacity="1.00" stroke="None">
<path d="
M 8.00 11.00 
C 10.10 10.72 10.72 10.12 11.00 8.00
C 10.38 8.96 8.95 10.39 8.00 11.00 Z"/>
</g>
<g fill="#000000" fill-opacity="0.00" stroke="None">
<path d="
M 8.00 11.00 
C 8.25 11.25 8.00 12.00 8.00 12.00
L 12.00 12.00
L 12.00 8.00
C 12.00 8.00 11.25 8.25 11.00 8.00
C 10.72 10.12 10.10 10.72 8.00 11.00 Z"/>
</g>
<g fill="#936F84" fill-opacity="1.00" stroke="None">
<path d="
M 4.00 12.00 
L 8.00 12.00
C 8.00 12.00 8.25 11.25 8.00 11.00
C 8.00 11.00 7.50 11.00 7.00 11.00
C 6.61 11.00 4.24 10.74 4.00 11.00
C 4.00 11.00 4.00 11.50 4.00 12.00 Z"/>
</g>
</svg>